<?xml version="1.0" encoding="utf-8"?>
<!-- Generator: Adobe Illustrator 18.1.1, SVG Export Plug-In . SVG Version: 6.00 Build 0)  -->
<svg version="1.1" id="Link" xmlns:sketch="http://www.bohemiancoding.com/sketch/ns"
	 xmlns="http://www.w3.org/2000/svg" xmlns:xlink="http://www.w3.org/1999/xlink" x="0px" y="0px" width="20px" height="20px"
	 viewBox="-389 191 20 20" enable-background="new -389 191 20 20" xml:space="preserve">
<g id="Shape" sketch:type="MSShapeGroup">
	<path id="Fill-177" fill="#5E8CD5" d="M-379.6,204.4c0,0.2,0.1,0.3,0.1,0.5c0,0.9-0.4,1.7-1,2.3l-1.3,1.3c-0.6,0.6-1.5,1-2.4,1
		c-1.9,0-3.4-1.5-3.4-3.3c0-0.9,0.4-1.7,1-2.3l1.3-1.3c0.6-0.6,1.5-1,2.4-1c0.2,0,0.3,0,0.5,0l1-1c-0.5-0.2-1-0.3-1.5-0.3
		c-1.2,0-2.4,0.5-3.3,1.3l-1.3,1.3c-0.9,0.8-1.4,2-1.4,3.2c0,2.5,2.1,4.5,4.6,4.5c1.2,0,2.4-0.5,3.3-1.3l1.3-1.3
		c0.9-0.8,1.4-2,1.4-3.2c0-0.5-0.1-1-0.3-1.5L-379.6,204.4"/>
	<path id="Fill-178" fill="#5E8CD5" d="M-373.6,191.4c-1.2,0-2.4,0.5-3.3,1.3l-1.3,1.3c-0.9,0.8-1.4,2-1.4,3.2c0,0.5,0.1,1,0.3,1.5
		l1-1c0-0.2-0.1-0.3-0.1-0.5c0-0.9,0.4-1.7,1-2.3l1.3-1.3c0.6-0.6,1.5-1,2.4-1c1.9,0,3.4,1.5,3.4,3.3c0,0.9-0.4,1.7-1,2.3l-1.3,1.3
		c-0.6,0.6-1.5,1-2.4,1c-0.2,0-0.3,0-0.5,0l-1,1c0.5,0.2,1,0.3,1.5,0.3c1.2,0,2.4-0.5,3.3-1.3l1.3-1.3c0.9-0.8,1.4-2,1.4-3.2
		C-369,193.4-371.1,191.4-373.6,191.4"/>
	<path id="Fill-179" fill="#5E8CD5" d="M-382.3,204.9c-0.2,0-0.3-0.1-0.5-0.2c-0.3-0.3-0.3-0.7,0-0.9l6.7-6.5c0.3-0.3,0.7-0.3,0.9,0
		c0.3,0.3,0.3,0.7,0,0.9l-6.7,6.5C-382,204.9-382.1,204.9-382.3,204.9"/>
</g>
</svg>
