<?xml version="1.0" encoding="UTF-8" standalone="no"?>
<svg width="100px" height="100px" viewBox="0 0 100 100" version="1.1" xmlns="http://www.w3.org/2000/svg" xmlns:xlink="http://www.w3.org/1999/xlink" xmlns:sketch="http://www.bohemiancoding.com/sketch/ns">
    <!-- Generator: Sketch 3.2.2 (9983) - http://www.bohemiancoding.com/sketch -->
    <title>Rectangle 1 + user + Image</title>
    <desc>Created with Sketch.</desc>
    <defs></defs>
    <g id="Page-1" stroke="none" stroke-width="1" fill="none" fill-rule="evenodd" sketch:type="MSPage">
        <g id="Rectangle-1-+-user-+-Image" sketch:type="MSLayerGroup">
            <rect id="Rectangle-1" fill="#ECECEC" sketch:type="MSShapeGroup" x="0" y="0" width="100" height="100" rx="6"></rect>
            <g id="user-+-Image" transform="translate(25.000000, 9.000000)" sketch:type="MSShapeGroup">
                <g id="user" transform="translate(5.000000, 0.000000)" fill="#F4D03F">
                    <g id="Fill-57" transform="translate(0.264957, 0.568376)">
                        <path d="M6.55444494,34.8128653 C10.1039398,38.0388857 14.815608,40.0075281 19.9780424,40.0075281 C25.2935018,40.0075281 30.1309031,37.9208941 33.7140653,34.5237843 C32.7881648,33.800784 30.9963819,33.2139814 29.3735748,32.6823291 C26.2612541,31.6610961 22.7323348,30.5044579 22.7323348,27.6508264 L22.7323348,24.4694387 L23.3536537,24.1239658 C23.4166445,24.0872672 25.1474613,23.0597068 25.1474613,21.0071169 L25.1474613,20.2111372 L25.9835217,19.9150176 C26.1238195,19.8580715 26.9369742,19.4796964 26.9369742,18.3964554 C26.9369742,18.0649027 26.6506521,17.6941204 26.5504394,17.590352 L26.0651235,17.0866955 L26.2884547,16.445103 C26.2956128,16.4248555 27.0271656,14.435539 27.0271656,11.8324704 C27.0271656,9.61157316 25.5869657,7.51216094 24.0623007,7.51216094 L23.2978209,7.51216094 L22.9127177,6.92877997 C22.6306905,6.50231709 21.4338643,6.04927937 19.76747,6.04927937 C15.223539,6.04927937 12.5092059,8.21069955 12.5092059,11.8324704 C12.5092059,13.5433838 13.1877892,16.2983086 13.1949473,16.326149 L13.3524244,16.9639451 L12.8255918,17.4195137 C12.8255918,17.4195137 12.3746346,17.8409147 12.3746346,18.3572259 C12.3746346,19.0089421 13.2593697,19.8201074 13.6874212,20.1111652 L14.2056641,20.4642309 L14.2099589,21.0463464 C14.2099589,22.9850441 16.1025477,24.0784089 16.1841495,24.1239658 L16.7968787,24.4707041 L16.8040367,27.6508264 C16.8040367,30.6056954 13.0546495,32.0926208 9.74476653,33.4036462 C8.70573046,33.8151397 7.41783738,34.3261846 6.55444494,34.8128653 L6.55444494,34.8128653 Z M4.80814633,33.0151965 C1.81213262,29.5203238 0,24.9821816 0,20.0288956 C0,9.01291602 8.96291761,0.0502631118 19.9780424,0.0502631118 C30.9943473,0.0502631118 39.957265,9.01291602 39.957265,20.0288956 C39.957265,24.8384108 38.2488012,29.2565318 35.4068938,32.7082555 C34.0987504,31.7200451 32.1771586,31.0902888 30.2998267,30.4753521 C27.8875634,29.6844343 25.3936983,28.8669417 25.3936983,27.6508264 L25.3936983,25.6906158 C26.1982633,25.0654743 27.5167763,23.7468562 27.7673081,21.7018591 C28.6520432,21.1286019 29.5997692,20.0554846 29.5997692,18.3964554 C29.5997692,17.6624837 29.291973,17.0297494 29.0070826,16.6032866 C29.2633408,15.7326442 29.6885291,13.9723776 29.6885291,11.8324704 C29.6885291,8.49669543 27.4981654,5.63800211 24.766653,5.2128047 C23.5970274,4.10551978 21.4968552,3.69550799 19.76747,3.69550799 C13.7418224,3.69550799 9.84784247,6.88955045 9.84784247,11.8324704 C9.84784247,13.3080066 10.2515566,15.318836 10.4662981,16.2793266 C10.114122,16.7386917 9.7132711,17.4612742 9.7132711,18.3572259 C9.7132711,19.8327621 10.8771702,21.0248334 11.5786593,21.6094799 C11.8091485,23.6835827 13.276549,25.0629434 14.1426733,25.7045359 L14.1426733,27.6508264 C14.1426733,29.0808058 11.1005014,30.2867973 8.65674273,31.2561462 C7.1847258,31.839842 5.83010683,32.3769891 4.80814633,33.0151965 L4.80814633,33.0151965 Z" id="Shape"></path>
                    </g>
                </g>
                <path d="M9.452,63 L9.452,54.329 L7.606,54.329 L7.606,63 L9.452,63 Z M20.58,63 L20.58,58.463 C20.58,57.176 19.891,56.565 18.734,56.565 C17.772,56.565 16.94,57.137 16.576,57.696 C16.355,56.994 15.757,56.565 14.834,56.565 C13.872,56.565 13.053,57.163 12.78,57.527 L12.78,56.721 L11.129,56.721 L11.129,63 L12.78,63 L12.78,58.762 C13.027,58.424 13.508,58.034 14.08,58.034 C14.756,58.034 15.016,58.45 15.016,59.035 L15.016,63 L16.68,63 L16.68,58.762 C16.914,58.424 17.395,58.034 17.98,58.034 C18.656,58.034 18.916,58.45 18.916,59.035 L18.916,63 L20.58,63 Z M27.652,63 L27.652,58.944 C27.652,57.137 26.339,56.565 24.896,56.565 C23.908,56.565 22.92,56.864 22.153,57.553 L22.803,58.71 C23.323,58.229 23.947,57.969 24.61,57.969 C25.442,57.969 25.988,58.385 25.988,59.022 L25.988,59.815 C25.572,59.321 24.844,59.048 23.999,59.048 C22.998,59.048 21.828,59.594 21.828,61.076 C21.828,62.48 22.998,63.156 23.999,63.156 C24.818,63.156 25.559,62.857 25.988,62.337 L25.988,63 L27.652,63 Z M24.662,62.038 C24.012,62.038 23.479,61.7 23.479,61.102 C23.479,60.504 24.012,60.153 24.662,60.153 C25.195,60.153 25.715,60.348 25.988,60.712 L25.988,61.492 C25.715,61.856 25.195,62.038 24.662,62.038 L24.662,62.038 Z M31.851,65.548 C33.398,65.548 35.244,64.963 35.244,62.584 L35.244,56.721 L33.593,56.721 L33.593,57.527 C33.086,56.877 32.397,56.565 31.643,56.565 C30.057,56.565 28.874,57.709 28.874,59.763 C28.874,61.856 30.083,62.948 31.643,62.948 C32.423,62.948 33.099,62.597 33.593,61.973 L33.593,62.584 C33.593,63.858 32.644,64.196 31.851,64.196 C31.071,64.196 30.395,63.975 29.888,63.429 L29.147,64.612 C29.94,65.301 30.785,65.548 31.851,65.548 L31.851,65.548 Z M32.176,61.492 C31.227,61.492 30.577,60.842 30.577,59.763 C30.577,58.684 31.227,58.034 32.176,58.034 C32.709,58.034 33.307,58.333 33.593,58.736 L33.593,60.777 C33.307,61.18 32.709,61.492 32.176,61.492 L32.176,61.492 Z M39.833,63.156 C40.808,63.156 41.796,62.857 42.42,62.285 L41.679,61.193 C41.276,61.583 40.548,61.804 40.015,61.804 C38.949,61.804 38.325,61.167 38.208,60.4 L42.875,60.4 L42.875,60.01 C42.875,57.969 41.614,56.565 39.729,56.565 C37.831,56.565 36.479,58.034 36.479,59.854 C36.479,61.869 37.922,63.156 39.833,63.156 L39.833,63.156 Z M41.289,59.256 L38.195,59.256 C38.26,58.632 38.702,57.917 39.729,57.917 C40.821,57.917 41.237,58.658 41.289,59.256 L41.289,59.256 Z M9.543,79 L9.543,70.329 L6.943,70.329 L4.837,75.75 L2.731,70.329 L0.144,70.329 L0.144,79 L1.99,79 L1.99,72.747 L4.434,79 L5.24,79 L7.684,72.747 L7.684,79 L9.543,79 Z M12.039,72.045 C12.585,72.045 13.027,71.603 13.027,71.057 C13.027,70.511 12.585,70.082 12.039,70.082 C11.506,70.082 11.064,70.511 11.064,71.057 C11.064,71.603 11.506,72.045 12.039,72.045 L12.039,72.045 Z M12.871,79 L12.871,72.721 L11.22,72.721 L11.22,79 L12.871,79 Z M16.771,79.156 C18.513,79.156 19.501,78.311 19.501,77.154 C19.501,74.619 15.77,75.399 15.77,74.476 C15.77,74.125 16.16,73.865 16.758,73.865 C17.525,73.865 18.24,74.203 18.617,74.593 L19.28,73.423 C18.656,72.929 17.811,72.565 16.758,72.565 C15.094,72.565 14.184,73.488 14.184,74.541 C14.184,77.011 17.902,76.166 17.902,77.193 C17.902,77.583 17.564,77.856 16.849,77.856 C16.069,77.856 15.146,77.427 14.678,76.985 L13.963,78.181 C14.626,78.792 15.679,79.156 16.771,79.156 L16.771,79.156 Z M22.972,79.156 C24.714,79.156 25.702,78.311 25.702,77.154 C25.702,74.619 21.971,75.399 21.971,74.476 C21.971,74.125 22.361,73.865 22.959,73.865 C23.726,73.865 24.441,74.203 24.818,74.593 L25.481,73.423 C24.857,72.929 24.012,72.565 22.959,72.565 C21.295,72.565 20.385,73.488 20.385,74.541 C20.385,77.011 24.103,76.166 24.103,77.193 C24.103,77.583 23.765,77.856 23.05,77.856 C22.27,77.856 21.347,77.427 20.879,76.985 L20.164,78.181 C20.827,78.792 21.88,79.156 22.972,79.156 L22.972,79.156 Z M29.173,79.156 C30.915,79.156 31.903,78.311 31.903,77.154 C31.903,74.619 28.172,75.399 28.172,74.476 C28.172,74.125 28.562,73.865 29.16,73.865 C29.927,73.865 30.642,74.203 31.019,74.593 L31.682,73.423 C31.058,72.929 30.213,72.565 29.16,72.565 C27.496,72.565 26.586,73.488 26.586,74.541 C26.586,77.011 30.304,76.166 30.304,77.193 C30.304,77.583 29.966,77.856 29.251,77.856 C28.471,77.856 27.548,77.427 27.08,76.985 L26.365,78.181 C27.028,78.792 28.081,79.156 29.173,79.156 L29.173,79.156 Z M33.931,72.045 C34.477,72.045 34.919,71.603 34.919,71.057 C34.919,70.511 34.477,70.082 33.931,70.082 C33.398,70.082 32.956,70.511 32.956,71.057 C32.956,71.603 33.398,72.045 33.931,72.045 L33.931,72.045 Z M34.763,79 L34.763,72.721 L33.112,72.721 L33.112,79 L34.763,79 Z M42.303,79 L42.303,74.567 C42.303,73.345 41.64,72.565 40.249,72.565 C39.235,72.565 38.455,73.059 38.052,73.527 L38.052,72.721 L36.401,72.721 L36.401,79 L38.052,79 L38.052,74.762 C38.338,74.398 38.832,74.034 39.482,74.034 C40.184,74.034 40.639,74.333 40.639,75.204 L40.639,79 L42.303,79 Z M46.502,81.548 C48.049,81.548 49.895,80.963 49.895,78.584 L49.895,72.721 L48.244,72.721 L48.244,73.527 C47.737,72.877 47.048,72.565 46.294,72.565 C44.708,72.565 43.525,73.709 43.525,75.763 C43.525,77.856 44.734,78.948 46.294,78.948 C47.074,78.948 47.75,78.597 48.244,77.973 L48.244,78.584 C48.244,79.858 47.295,80.196 46.502,80.196 C45.722,80.196 45.046,79.975 44.539,79.429 L43.798,80.612 C44.591,81.301 45.436,81.548 46.502,81.548 L46.502,81.548 Z M46.827,77.492 C45.878,77.492 45.228,76.842 45.228,75.763 C45.228,74.684 45.878,74.034 46.827,74.034 C47.36,74.034 47.958,74.333 48.244,74.736 L48.244,76.777 C47.958,77.18 47.36,77.492 46.827,77.492 L46.827,77.492 Z" id="Image" fill="#6195D8"></path>
            </g>
        </g>
    </g>
</svg>