<?xml version="1.0" encoding="utf-8"?>
<!-- Generator: Adobe Illustrator 18.1.1, SVG Export Plug-In . SVG Version: 6.00 Build 0)  -->
<svg version="1.1" id="Share" xmlns:sketch="http://www.bohemiancoding.com/sketch/ns"
	 xmlns="http://www.w3.org/2000/svg" xmlns:xlink="http://www.w3.org/1999/xlink" x="0px" y="0px" width="15px" height="20px"
	 viewBox="-392 191 15 20" style="enable-background:new -392 191 15 20;" xml:space="preserve">
<style type="text/css">
	.st0{fill:#5E8FD7;}
</style>
<g id="Shape" sketch:type="MSShapeGroup">
	<path id="Fill-74" class="st0" d="M-381.8,195.9l-3-3l-3,3l-0.7-0.7l3.7-3.7l3.7,3.7L-381.8,195.9"/>
	<path id="Fill-75" class="st0" d="M-385.3,192.2h1.1v11.7h-1.1V192.2z"/>
	<path id="Fill-76" class="st0" d="M-379.2,210.5h-11.1c-0.9,0-1.7-0.7-1.7-1.7v-10c0-0.9,0.7-1.7,1.7-1.7h3.9v1.1h-3.9
		c-0.3,0-0.6,0.2-0.6,0.6v10c0,0.3,0.2,0.6,0.6,0.6h11.1c0.3,0,0.6-0.2,0.6-0.6v-10c0-0.3-0.2-0.6-0.6-0.6h-3.9v-1.1h3.9
		c0.9,0,1.7,0.7,1.7,1.7v10C-377.5,209.8-378.3,210.5-379.2,210.5"/>
</g>
</svg>
