<?xml version="1.0" encoding="UTF-8" standalone="no"?>
<svg width="187px" height="187px" viewBox="0 0 187 187" version="1.1" xmlns="http://www.w3.org/2000/svg" xmlns:xlink="http://www.w3.org/1999/xlink" xmlns:sketch="http://www.bohemiancoding.com/sketch/ns">
    <!-- Generator: Sketch 3.2.2 (9983) - http://www.bohemiancoding.com/sketch -->
    <title>Link</title>
    <desc>Created with Sketch.</desc>
    <defs>
        <circle id="path-1" cx="93.5" cy="93.5" r="93.5"></circle>
        <circle id="path-3" cx="93.5" cy="93.5" r="93.5"></circle>
    </defs>
    <g id="Website" stroke="none" stroke-width="1" fill="none" fill-rule="evenodd" sketch:type="MSPage">
        <g id="Artboard-1" sketch:type="MSArtboardGroup" transform="translate(-307.000000, -206.000000)">
            <g id="Link" sketch:type="MSLayerGroup" transform="translate(307.000000, 206.000000)">
                <mask id="mask-2" sketch:name="Oval 1" fill="white">
                    <use xlink:href="#path-1"></use>
                </mask>
                <use id="Oval-1" fill="#ECECEC" sketch:type="MSShapeGroup" xlink:href="#path-1"></use>
                <mask id="mask-4" sketch:name="Oval 6" fill="white">
                    <use xlink:href="#path-3"></use>
                </mask>
                <use id="Oval-6" sketch:type="MSShapeGroup" xlink:href="#path-3"></use>
                <g id="user" mask="url(#mask-4)" fill="#6195D8" sketch:type="MSShapeGroup">
                    <g transform="translate(126.264957, 29.568376)" id="Fill-57">
                        <path d="M6.55444494,34.8128653 C10.1039398,38.0388857 14.815608,40.0075281 19.9780424,40.0075281 C25.2935018,40.0075281 30.1309031,37.9208941 33.7140653,34.5237843 C32.7881648,33.800784 30.9963819,33.2139814 29.3735748,32.6823291 C26.2612541,31.6610961 22.7323348,30.5044579 22.7323348,27.6508264 L22.7323348,24.4694387 L23.3536537,24.1239658 C23.4166445,24.0872672 25.1474613,23.0597068 25.1474613,21.0071169 L25.1474613,20.2111372 L25.9835217,19.9150176 C26.1238195,19.8580715 26.9369742,19.4796964 26.9369742,18.3964554 C26.9369742,18.0649027 26.6506521,17.6941204 26.5504394,17.590352 L26.0651235,17.0866955 L26.2884547,16.445103 C26.2956128,16.4248555 27.0271656,14.435539 27.0271656,11.8324704 C27.0271656,9.61157316 25.5869657,7.51216094 24.0623007,7.51216094 L23.2978209,7.51216094 L22.9127177,6.92877997 C22.6306905,6.50231709 21.4338643,6.04927937 19.76747,6.04927937 C15.223539,6.04927937 12.5092059,8.21069955 12.5092059,11.8324704 C12.5092059,13.5433838 13.1877892,16.2983086 13.1949473,16.326149 L13.3524244,16.9639451 L12.8255918,17.4195137 C12.8255918,17.4195137 12.3746346,17.8409147 12.3746346,18.3572259 C12.3746346,19.0089421 13.2593697,19.8201074 13.6874212,20.1111652 L14.2056641,20.4642309 L14.2099589,21.0463464 C14.2099589,22.9850441 16.1025477,24.0784089 16.1841495,24.1239658 L16.7968787,24.4707041 L16.8040367,27.6508264 C16.8040367,30.6056954 13.0546495,32.0926208 9.74476653,33.4036462 C8.70573046,33.8151397 7.41783738,34.3261846 6.55444494,34.8128653 Z M4.80814633,33.0151965 C1.81213262,29.5203238 0,24.9821816 0,20.0288956 C0,9.01291602 8.96291761,0.0502631118 19.9780424,0.0502631118 C30.9943473,0.0502631118 39.957265,9.01291602 39.957265,20.0288956 C39.957265,24.8384108 38.2488012,29.2565318 35.4068938,32.7082555 C34.0987504,31.7200451 32.1771586,31.0902888 30.2998267,30.4753521 C27.8875634,29.6844343 25.3936983,28.8669417 25.3936983,27.6508264 L25.3936983,25.6906158 C26.1982633,25.0654743 27.5167763,23.7468562 27.7673081,21.7018591 C28.6520432,21.1286019 29.5997692,20.0554846 29.5997692,18.3964554 C29.5997692,17.6624837 29.291973,17.0297494 29.0070826,16.6032866 C29.2633408,15.7326442 29.6885291,13.9723776 29.6885291,11.8324704 C29.6885291,8.49669543 27.4981654,5.63800211 24.766653,5.2128047 C23.5970274,4.10551978 21.4968552,3.69550799 19.76747,3.69550799 C13.7418224,3.69550799 9.84784247,6.88955045 9.84784247,11.8324704 C9.84784247,13.3080066 10.2515566,15.318836 10.4662981,16.2793266 C10.114122,16.7386917 9.7132711,17.4612742 9.7132711,18.3572259 C9.7132711,19.8327621 10.8771702,21.0248334 11.5786593,21.6094799 C11.8091485,23.6835827 13.276549,25.0629434 14.1426733,25.7045359 L14.1426733,27.6508264 C14.1426733,29.0808058 11.1005014,30.2867973 8.65674273,31.2561462 C7.1847258,31.839842 5.83010683,32.3769891 4.80814633,33.0151965 Z"></path>
                    </g>
                </g>
                <g id="user" mask="url(#mask-4)" fill="#6195D8" sketch:type="MSShapeGroup">
                    <g transform="translate(131.858974, 107.884615)" id="Fill-57">
                        <path d="M6.55444494,34.8128653 C10.1039398,38.0388857 14.815608,40.0075281 19.9780424,40.0075281 C25.2935018,40.0075281 30.1309031,37.9208941 33.7140653,34.5237843 C32.7881648,33.800784 30.9963819,33.2139814 29.3735748,32.6823291 C26.2612541,31.6610961 22.7323348,30.5044579 22.7323348,27.6508264 L22.7323348,24.4694387 L23.3536537,24.1239658 C23.4166445,24.0872672 25.1474613,23.0597068 25.1474613,21.0071169 L25.1474613,20.2111372 L25.9835217,19.9150176 C26.1238195,19.8580715 26.9369742,19.4796964 26.9369742,18.3964554 C26.9369742,18.0649027 26.6506521,17.6941204 26.5504394,17.590352 L26.0651235,17.0866955 L26.2884547,16.445103 C26.2956128,16.4248555 27.0271656,14.435539 27.0271656,11.8324704 C27.0271656,9.61157316 25.5869657,7.51216094 24.0623007,7.51216094 L23.2978209,7.51216094 L22.9127177,6.92877997 C22.6306905,6.50231709 21.4338643,6.04927937 19.76747,6.04927937 C15.223539,6.04927937 12.5092059,8.21069955 12.5092059,11.8324704 C12.5092059,13.5433838 13.1877892,16.2983086 13.1949473,16.326149 L13.3524244,16.9639451 L12.8255918,17.4195137 C12.8255918,17.4195137 12.3746346,17.8409147 12.3746346,18.3572259 C12.3746346,19.0089421 13.2593697,19.8201074 13.6874212,20.1111652 L14.2056641,20.4642309 L14.2099589,21.0463464 C14.2099589,22.9850441 16.1025477,24.0784089 16.1841495,24.1239658 L16.7968787,24.4707041 L16.8040367,27.6508264 C16.8040367,30.6056954 13.0546495,32.0926208 9.74476653,33.4036462 C8.70573046,33.8151397 7.41783738,34.3261846 6.55444494,34.8128653 Z M4.80814633,33.0151965 C1.81213262,29.5203238 0,24.9821816 0,20.0288956 C0,9.01291602 8.96291761,0.0502631118 19.9780424,0.0502631118 C30.9943473,0.0502631118 39.957265,9.01291602 39.957265,20.0288956 C39.957265,24.8384108 38.2488012,29.2565318 35.4068938,32.7082555 C34.0987504,31.7200451 32.1771586,31.0902888 30.2998267,30.4753521 C27.8875634,29.6844343 25.3936983,28.8669417 25.3936983,27.6508264 L25.3936983,25.6906158 C26.1982633,25.0654743 27.5167763,23.7468562 27.7673081,21.7018591 C28.6520432,21.1286019 29.5997692,20.0554846 29.5997692,18.3964554 C29.5997692,17.6624837 29.291973,17.0297494 29.0070826,16.6032866 C29.2633408,15.7326442 29.6885291,13.9723776 29.6885291,11.8324704 C29.6885291,8.49669543 27.4981654,5.63800211 24.766653,5.2128047 C23.5970274,4.10551978 21.4968552,3.69550799 19.76747,3.69550799 C13.7418224,3.69550799 9.84784247,6.88955045 9.84784247,11.8324704 C9.84784247,13.3080066 10.2515566,15.318836 10.4662981,16.2793266 C10.114122,16.7386917 9.7132711,17.4612742 9.7132711,18.3572259 C9.7132711,19.8327621 10.8771702,21.0248334 11.5786593,21.6094799 C11.8091485,23.6835827 13.276549,25.0629434 14.1426733,25.7045359 L14.1426733,27.6508264 C14.1426733,29.0808058 11.1005014,30.2867973 8.65674273,31.2561462 C7.1847258,31.839842 5.83010683,32.3769891 4.80814633,33.0151965 Z"></path>
                    </g>
                </g>
                <g id="user" mask="url(#mask-4)" fill="#6195D8" sketch:type="MSShapeGroup">
                    <g transform="translate(55.940171, 144.645299)" id="Fill-57">
                        <path d="M6.55444494,34.8128653 C10.1039398,38.0388857 14.815608,40.0075281 19.9780424,40.0075281 C25.2935018,40.0075281 30.1309031,37.9208941 33.7140653,34.5237843 C32.7881648,33.800784 30.9963819,33.2139814 29.3735748,32.6823291 C26.2612541,31.6610961 22.7323348,30.5044579 22.7323348,27.6508264 L22.7323348,24.4694387 L23.3536537,24.1239658 C23.4166445,24.0872672 25.1474613,23.0597068 25.1474613,21.0071169 L25.1474613,20.2111372 L25.9835217,19.9150176 C26.1238195,19.8580715 26.9369742,19.4796964 26.9369742,18.3964554 C26.9369742,18.0649027 26.6506521,17.6941204 26.5504394,17.590352 L26.0651235,17.0866955 L26.2884547,16.445103 C26.2956128,16.4248555 27.0271656,14.435539 27.0271656,11.8324704 C27.0271656,9.61157316 25.5869657,7.51216094 24.0623007,7.51216094 L23.2978209,7.51216094 L22.9127177,6.92877997 C22.6306905,6.50231709 21.4338643,6.04927937 19.76747,6.04927937 C15.223539,6.04927937 12.5092059,8.21069955 12.5092059,11.8324704 C12.5092059,13.5433838 13.1877892,16.2983086 13.1949473,16.326149 L13.3524244,16.9639451 L12.8255918,17.4195137 C12.8255918,17.4195137 12.3746346,17.8409147 12.3746346,18.3572259 C12.3746346,19.0089421 13.2593697,19.8201074 13.6874212,20.1111652 L14.2056641,20.4642309 L14.2099589,21.0463464 C14.2099589,22.9850441 16.1025477,24.0784089 16.1841495,24.1239658 L16.7968787,24.4707041 L16.8040367,27.6508264 C16.8040367,30.6056954 13.0546495,32.0926208 9.74476653,33.4036462 C8.70573046,33.8151397 7.41783738,34.3261846 6.55444494,34.8128653 Z M4.80814633,33.0151965 C1.81213262,29.5203238 0,24.9821816 0,20.0288956 C0,9.01291602 8.96291761,0.0502631118 19.9780424,0.0502631118 C30.9943473,0.0502631118 39.957265,9.01291602 39.957265,20.0288956 C39.957265,24.8384108 38.2488012,29.2565318 35.4068938,32.7082555 C34.0987504,31.7200451 32.1771586,31.0902888 30.2998267,30.4753521 C27.8875634,29.6844343 25.3936983,28.8669417 25.3936983,27.6508264 L25.3936983,25.6906158 C26.1982633,25.0654743 27.5167763,23.7468562 27.7673081,21.7018591 C28.6520432,21.1286019 29.5997692,20.0554846 29.5997692,18.3964554 C29.5997692,17.6624837 29.291973,17.0297494 29.0070826,16.6032866 C29.2633408,15.7326442 29.6885291,13.9723776 29.6885291,11.8324704 C29.6885291,8.49669543 27.4981654,5.63800211 24.766653,5.2128047 C23.5970274,4.10551978 21.4968552,3.69550799 19.76747,3.69550799 C13.7418224,3.69550799 9.84784247,6.88955045 9.84784247,11.8324704 C9.84784247,13.3080066 10.2515566,15.318836 10.4662981,16.2793266 C10.114122,16.7386917 9.7132711,17.4612742 9.7132711,18.3572259 C9.7132711,19.8327621 10.8771702,21.0248334 11.5786593,21.6094799 C11.8091485,23.6835827 13.276549,25.0629434 14.1426733,25.7045359 L14.1426733,27.6508264 C14.1426733,29.0808058 11.1005014,30.2867973 8.65674273,31.2561462 C7.1847258,31.839842 5.83010683,32.3769891 4.80814633,33.0151965 Z"></path>
                    </g>
                </g>
                <g id="copy32" mask="url(#mask-4)" sketch:type="MSShapeGroup">
                    <g transform="translate(112.679487, 68.726496)" id="Rectangle-path">
                        <rect x="0" y="0" width="57.5384615" height="57.5384615"></rect>
                        <rect x="0" y="0" width="57.5384615" height="57.5384615"></rect>
                    </g>
                </g>
                <circle id="Oval-2" fill="#F3CE4E" sketch:type="MSShapeGroup" mask="url(#mask-4)" cx="91.9017094" cy="29.5683761" r="15.982906"></circle>
                <g id="link" mask="url(#mask-4)" fill="#6195D8" sketch:type="MSShapeGroup">
                    <g transform="translate(13.585470, 47.948718)">
                        <path d="M32.0586194,46.3880937 C32.1433821,46.9539419 32.2327265,47.51979 32.2327265,48.108547 C32.2327265,51.2126937 31.0231402,54.128988 28.830765,56.3213632 L24.2489986,60.9031296 C22.0543325,63.0977957 19.1403291,64.3050912 16.0361823,64.3050912 C9.63316382,64.3050912 4.42140456,59.0956228 4.42140456,52.6903134 C4.42140456,49.5884575 5.63099088,46.6721632 7.8233661,44.4774972 L12.3822236,39.9209305 C14.5791806,37.7125191 17.5046385,36.4937692 20.6179487,36.4937692 C21.2067057,36.4937692 21.7725538,36.5831137 22.338402,36.6678764 L25.8640712,33.1422071 C24.2192171,32.5626137 22.4575279,32.2327265 20.6179487,32.2327265 C16.3614877,32.2327265 12.3616057,33.8981986 9.36513048,36.9130009 L4.8108547,41.4649858 C1.8120886,44.4637519 0.160361823,48.4498886 0.160361823,52.6903134 C0.160361823,61.4460689 7.28271766,68.5661339 16.0361823,68.5661339 C20.2766071,68.5661339 24.2627439,66.9144071 27.26151,63.9179319 L31.8432764,59.3361655 C34.8420425,56.3351085 36.4937692,52.3489718 36.4937692,48.108547 C36.4937692,46.2689678 36.1638821,44.5072786 35.5842886,42.8624245 L32.0586194,46.3880937" id="Fill-177"></path>
                        <path d="M52.6903134,0.160361823 C48.4338524,0.160361823 44.4339704,1.8258339 41.4374952,4.84063618 L36.8832194,9.39262108 C33.8844533,12.3913872 32.2327265,16.3775239 32.2327265,20.6179487 C32.2327265,22.4598188 32.5626137,24.2192171 33.1422071,25.8663621 L36.6678764,22.338402 C36.5831137,21.7725538 36.4937692,21.2067057 36.4937692,20.6179487 C36.4937692,17.5160929 37.7010647,14.5997986 39.8957308,12.4051325 L44.4545883,7.84856581 C46.6515453,5.64015442 49.5770031,4.42140456 52.6903134,4.42140456 C59.0933319,4.42140456 64.3050912,9.63316382 64.3050912,16.0361823 C64.3050912,19.1403291 63.0955048,22.0566234 60.9031296,24.2489986 L56.3213632,28.830765 C54.1266972,31.0254311 51.2126937,32.2327265 48.108547,32.2327265 C47.51979,32.2327265 46.9539419,32.1433821 46.3880937,32.0586194 L42.8624245,35.5842886 C44.5072786,36.1638821 46.2666769,36.4937692 48.108547,36.4937692 C52.3489718,36.4937692 56.3351085,34.8420425 59.3338746,31.8455672 L63.915641,27.2638009 C66.9144071,24.2627439 68.5661339,20.2766071 68.5661339,16.0361823 C68.5661339,7.28271766 61.4437781,0.160361823 52.6903134,0.160361823" id="Fill-178"></path>
                        <path d="M22.9088319,48.108547 C22.3223658,48.108547 21.7358997,47.8840405 21.2891775,47.4373182 C20.3934422,46.5438738 20.3934422,45.0937447 21.2891775,44.1980094 L44.1980094,21.2891775 C45.0937447,20.3934422 46.5415829,20.3934422 47.4373182,21.2891775 C48.3330536,22.1849128 48.3330536,23.6350419 47.4373182,24.5284863 L24.5284863,47.4373182 C24.0817641,47.8840405 23.495298,48.108547 22.9088319,48.108547" id="Fill-179"></path>
                    </g>
                </g>
                <path d="M121.086779,82.5410907 L123.68831,66.4269812 C123.752729,65.7975774 123.292438,65.2291651 122.663395,65.1613164 L106.300691,64.2817921 C105.991472,64.2467105 105.689812,64.3404063 105.45803,64.5280999 C105.343081,64.6211838 105.244659,64.7385301 105.170302,64.874035 C104.952184,65.2828132 105.018222,65.7689292 105.312808,66.1327131 L109.107142,70.8183254 C101.219004,77.206014 88.2892844,85.4206741 78.3641653,78.4967481 C90.6171178,93.6278842 109.26003,83.4408114 115.34102,78.516523 L119.075516,83.1282417 C119.367033,83.4882361 119.828797,83.6538996 120.272457,83.5236434 C120.716117,83.3933873 121.039515,83.0028815 121.086779,82.5410907 L121.086779,82.5410907 Z" id="Shape" fill="#2A2D48" sketch:type="MSShapeGroup" mask="url(#mask-4)"></path>
                <path d="M110.837176,129.672207 L125.881318,123.339253 C126.449219,123.06035 126.687343,122.368789 126.41154,121.799375 L118.486507,107.456938 C118.352397,107.176116 118.113083,106.969945 117.831084,106.872845 C117.69123,106.824689 117.539559,106.803407 117.385242,106.812155 C116.922993,106.843801 116.545738,107.157406 116.393339,107.600005 L114.430405,113.300779 C104.833261,109.996218 77.8211355,95.5923703 66.2335321,89.1992092 C80.0761369,105.234479 103.806948,120.119334 111.205415,122.66683 L109.273437,128.277701 C109.122625,128.71569 109.226832,129.195076 109.5724,129.502296 C109.917967,129.809516 110.420509,129.876836 110.837176,129.672207 L110.837176,129.672207 Z" id="Shape-3" fill="#2A2D48" sketch:type="MSShapeGroup" mask="url(#mask-4)"></path>
                <path d="M88.3319173,127.264719 L80.2127487,141.42493 C79.8667153,141.954609 79.1512884,142.106678 78.6197314,141.763536 L65.3500194,132.149672 C65.0876339,131.982338 64.9121646,131.719682 64.8501553,131.427951 C64.8194027,131.283272 64.8167631,131.130138 64.8442529,130.978036 C64.9319962,130.52309 65.2892395,130.186865 65.7471128,130.089542 L71.6446155,128.835989 C69.5342832,118.907656 64.6556573,104.38673 52.5850233,103.521551 C71.6296883,99.4734828 79.7070194,119.12269 81.3338809,126.776472 L87.1383781,125.542688 C87.5914819,125.446378 88.0545947,125.60823 88.3174107,125.988662 C88.5802266,126.369095 88.5858004,126.876096 88.3319173,127.264719 L88.3319173,127.264719 Z" id="Shape-2" fill="#2A2D48" sketch:type="MSShapeGroup" mask="url(#mask-4)"></path>
                <path d="M96.4507993,35.3803419 L96.4507993,33.9717902 L90.2265234,33.9717902 C93.7669372,31.1737212 96.3936958,28.8134453 96.3936958,26.2247557 C96.3936958,23.6931695 94.2427993,22.4939971 92.1299717,22.4939971 C90.3407303,22.4939971 88.6847303,23.2173074 87.7139717,24.4926177 L88.6847303,25.5014453 C89.4270752,24.5497212 90.6072131,23.9025488 92.1299717,23.9025488 C93.443351,23.9025488 94.7757648,24.6068246 94.7757648,26.2247557 C94.7757648,28.4137212 92.3012821,30.5265488 87.7330062,34.124066 L87.7330062,35.3803419 L96.4507993,35.3803419 Z" id="2" fill="#FFFFFF" sketch:type="MSShapeGroup" mask="url(#mask-4)"></path>
            </g>
        </g>
    </g>
</svg>