<?xml version="1.0" encoding="UTF-8" standalone="no"?>
<svg width="187px" height="187px" viewBox="0 0 187 187" version="1.1" xmlns="http://www.w3.org/2000/svg" xmlns:xlink="http://www.w3.org/1999/xlink" xmlns:sketch="http://www.bohemiancoding.com/sketch/ns">
    <!-- Generator: Sketch 3.2.2 (9983) - http://www.bohemiancoding.com/sketch -->
    <title>Create</title>
    <desc>Created with Sketch.</desc>
    <defs>
        <circle id="path-1" cx="93.5" cy="93.5" r="93.5"></circle>
    </defs>
    <g id="Website" stroke="none" stroke-width="1" fill="none" fill-rule="evenodd" sketch:type="MSPage">
        <g id="Artboard-1" sketch:type="MSArtboardGroup" transform="translate(-80.000000, -206.000000)">
            <g id="Create" sketch:type="MSLayerGroup" transform="translate(80.000000, 206.000000)">
                <mask id="mask-2" sketch:name="Oval 1" fill="white">
                    <use xlink:href="#path-1"></use>
                </mask>
                <use id="Oval-1" sketch:type="MSShapeGroup" xlink:href="#path-1"></use>
                <circle id="Oval-3" fill="#ECECEC" sketch:type="MSShapeGroup" mask="url(#mask-2)" cx="93.5" cy="93.5" r="93.5"></circle>
                <circle id="Oval-2" fill="#F3CE4E" sketch:type="MSShapeGroup" mask="url(#mask-2)" cx="91.9017094" cy="29.5683761" r="15.982906"></circle>
                <rect id="Rectangle-1" stroke="#6195D8" stroke-width="3.2" fill="#FFFFFF" sketch:type="MSShapeGroup" mask="url(#mask-2)" x="51.1452991" y="68.7264957" width="212.57265" height="47.9487179" rx="3.2"></rect>
                <rect id="Rectangle-1" fill="#F3CE4E" sketch:type="MSShapeGroup" mask="url(#mask-2)" x="51.1452991" y="131.858974" width="143.846154" height="47.9487179" rx="2.4"></rect>
                <g id="Line-+-Line-+-Line-2" mask="url(#mask-2)" stroke-linecap="round" stroke="#2A2D48" stroke-width="4" sketch:type="MSShapeGroup">
                    <g transform="translate(137.452991, 78.316239)" id="Line">
                        <path d="M1.99786325,0.39957265 L1.99786325,29.1688034"></path>
                    </g>
                </g>
                <path d="M92.8739829,35.3803419 L92.8739829,22.6843419 L91.4844657,22.6843419 L88.305707,25.9582729 L89.2574312,26.9290315 L91.2941208,24.778135 L91.2941208,35.3803419 L92.8739829,35.3803419 Z" id="1" fill="#FFFFFF" sketch:type="MSShapeGroup" mask="url(#mask-2)"></path>
                <path d="M86.3222705,162.514687 C88.6792117,162.514687 90.4135646,161.491863 91.725447,159.868687 L90.6581528,159.201628 C89.7242705,160.491275 88.101094,161.358451 86.3222705,161.358451 C82.8313293,161.358451 80.1408587,158.667981 80.1408587,154.84351 C80.1408587,150.974569 82.8313293,148.328569 86.3222705,148.328569 C88.101094,148.328569 89.7242705,149.195746 90.6581528,150.485393 L91.725447,149.796099 C90.4580352,148.217393 88.6792117,147.172334 86.3222705,147.172334 C82.1197999,147.172334 78.8067411,150.285275 78.8067411,154.84351 C78.8067411,159.401746 82.1197999,162.514687 86.3222705,162.514687 L86.3222705,162.514687 Z M95.4165058,162.247863 L95.4165058,154.42104 C95.9056823,153.487157 97.3732117,152.508804 98.4627411,152.508804 C98.685094,152.508804 98.8407411,152.508804 99.0408587,152.553275 L99.0408587,151.285863 C97.551094,151.285863 96.3281528,152.15304 95.4165058,153.353746 L95.4165058,151.508216 L94.2602705,151.508216 L94.2602705,162.247863 L95.4165058,162.247863 Z M106.067212,162.514687 C107.846035,162.514687 109.202388,161.892099 110.269682,160.780334 L109.669329,160.024334 C108.757682,161.002687 107.512506,161.514099 106.156153,161.514099 C103.621329,161.514099 102.064859,159.579628 101.953682,157.244922 L110.936741,157.244922 L110.936741,156.933628 C110.936741,153.842922 109.135682,151.241393 105.867094,151.241393 C102.887565,151.241393 100.68627,153.753981 100.68627,156.866922 C100.68627,160.179981 102.932035,162.514687 106.067212,162.514687 L106.067212,162.514687 Z M109.75827,156.333275 L101.953682,156.333275 C102.042623,154.46551 103.310035,152.241981 105.844859,152.241981 C108.535329,152.241981 109.736035,154.509981 109.75827,156.333275 L109.75827,156.333275 Z M121.898741,162.247863 L121.898741,154.687863 C121.898741,152.286451 120.164388,151.241393 117.985329,151.241393 C116.206506,151.241393 114.961329,151.841746 113.849565,153.042451 L114.494388,153.842922 C115.472741,152.731157 116.5178,152.264216 117.851918,152.264216 C119.452859,152.264216 120.742506,153.131393 120.742506,154.732334 L120.742506,156.911393 C119.808623,155.866334 118.585682,155.377157 117.095918,155.377157 C115.228153,155.377157 113.338153,156.600099 113.338153,158.934804 C113.338153,161.247275 115.250388,162.514687 117.095918,162.514687 C118.585682,162.514687 119.786388,162.02551 120.742506,160.980451 L120.742506,162.247863 L121.898741,162.247863 Z M117.496153,161.60304 C115.717329,161.60304 114.561094,160.46904 114.561094,158.95704 C114.561094,157.422804 115.717329,156.288804 117.496153,156.288804 C118.7858,156.288804 119.986506,156.800216 120.742506,157.778569 L120.742506,160.13551 C119.986506,161.113863 118.7858,161.60304 117.496153,161.60304 L117.496153,161.60304 Z M127.835565,162.514687 C128.724976,162.514687 129.236388,162.247863 129.658859,161.847628 L129.214153,160.958216 C128.969565,161.22504 128.524859,161.469628 128.013447,161.469628 C127.257447,161.469628 126.901682,160.869275 126.901682,160.002099 L126.901682,152.53104 L129.080741,152.53104 L129.080741,151.508216 L126.901682,151.508216 L126.901682,148.573157 L125.723212,148.573157 L125.723212,151.508216 L123.944388,151.508216 L123.944388,152.53104 L125.723212,152.53104 L125.723212,160.179981 C125.723212,161.64751 126.412506,162.514687 127.835565,162.514687 L127.835565,162.514687 Z M136.373918,162.514687 C138.152741,162.514687 139.509094,161.892099 140.576388,160.780334 L139.976035,160.024334 C139.064388,161.002687 137.819212,161.514099 136.462859,161.514099 C133.928035,161.514099 132.371565,159.579628 132.260388,157.244922 L141.243447,157.244922 L141.243447,156.933628 C141.243447,153.842922 139.442388,151.241393 136.1738,151.241393 C133.19427,151.241393 130.992976,153.753981 130.992976,156.866922 C130.992976,160.179981 133.238741,162.514687 136.373918,162.514687 L136.373918,162.514687 Z M140.064976,156.333275 L132.260388,156.333275 C132.349329,154.46551 133.616741,152.241981 136.151565,152.241981 C138.842035,152.241981 140.042741,154.509981 140.064976,156.333275 L140.064976,156.333275 Z M159.431918,162.247863 L159.431918,161.091628 L151.2938,161.091628 L151.2938,155.22151 L159.27627,155.22151 L159.27627,154.065275 L151.2938,154.065275 L151.2938,148.573157 L159.431918,148.573157 L159.431918,147.416922 L150.026388,147.416922 L150.026388,162.247863 L159.431918,162.247863 Z M166.725094,162.247863 L171.261094,151.508216 L169.949212,151.508216 L166.08027,160.89151 L162.166859,151.508216 L160.877212,151.508216 L165.413212,162.247863 L166.725094,162.247863 Z M177.976153,162.514687 C179.754976,162.514687 181.111329,161.892099 182.178623,160.780334 L181.57827,160.024334 C180.666623,161.002687 179.421447,161.514099 178.065094,161.514099 C175.53027,161.514099 173.9738,159.579628 173.862623,157.244922 L182.845682,157.244922 L182.845682,156.933628 C182.845682,153.842922 181.044623,151.241393 177.776035,151.241393 C174.796506,151.241393 172.595212,153.753981 172.595212,156.866922 C172.595212,160.179981 174.840976,162.514687 177.976153,162.514687 L177.976153,162.514687 Z M181.667212,156.333275 L173.862623,156.333275 C173.951565,154.46551 175.218976,152.241981 177.7538,152.241981 C180.44427,152.241981 181.644976,154.509981 181.667212,156.333275 L181.667212,156.333275 Z M194.230153,162.247863 L194.230153,154.732334 C194.230153,152.308687 193.029447,151.241393 190.850388,151.241393 C189.293918,151.241393 187.759682,152.19751 186.981447,153.131393 L186.981447,151.508216 L185.825212,151.508216 L185.825212,162.247863 L186.981447,162.247863 L186.981447,154.131981 C187.670741,153.153628 189.0938,152.286451 190.472388,152.286451 C192.028859,152.286451 193.073918,152.90904 193.073918,154.976922 L193.073918,162.247863 L194.230153,162.247863 Z M200.166976,162.514687 C201.056388,162.514687 201.5678,162.247863 201.99027,161.847628 L201.545565,160.958216 C201.300976,161.22504 200.85627,161.469628 200.344859,161.469628 C199.588859,161.469628 199.233094,160.869275 199.233094,160.002099 L199.233094,152.53104 L201.412153,152.53104 L201.412153,151.508216 L199.233094,151.508216 L199.233094,148.573157 L198.054623,148.573157 L198.054623,151.508216 L196.2758,151.508216 L196.2758,152.53104 L198.054623,152.53104 L198.054623,160.179981 C198.054623,161.64751 198.743918,162.514687 200.166976,162.514687 L200.166976,162.514687 Z" id="Create-Event" fill="#FFFFFF" sketch:type="MSShapeGroup" mask="url(#mask-2)"></path>
                <path d="M65.0952137,101.316239 L65.0952137,94.2704957 L70.0043419,94.2704957 C73.2347009,94.2704957 75.1169573,91.981265 75.1169573,89.3104957 C75.1169573,86.6397265 73.2601368,84.3504957 70.0043419,84.3504957 L63.6453675,84.3504957 L63.6453675,101.316239 L65.0952137,101.316239 Z M69.8517265,92.9478291 L65.0952137,92.9478291 L65.0952137,85.6731624 L69.8517265,85.6731624 C72.0900855,85.6731624 73.5908034,87.1738803 73.5908034,89.3104957 C73.5908034,91.4471111 72.0900855,92.9478291 69.8517265,92.9478291 L69.8517265,92.9478291 Z M87.2498803,101.316239 L87.2498803,92.6680342 C87.2498803,89.9209573 85.2658803,88.7254701 82.7731624,88.7254701 C80.7382906,88.7254701 79.3138803,89.4122393 78.0420855,90.7857778 L78.7797265,91.7014701 C79.898906,90.4296752 81.0943932,89.8955214 82.620547,89.8955214 C84.4519316,89.8955214 85.9272137,90.8875214 85.9272137,92.718906 L85.9272137,95.2116239 C84.858906,94.0161368 83.4599316,93.456547 81.7557265,93.456547 C79.6191111,93.456547 77.4570598,94.8555214 77.4570598,97.5262906 C77.4570598,100.171624 79.644547,101.62147 81.7557265,101.62147 C83.4599316,101.62147 84.8334701,101.06188 85.9272137,99.8663932 L85.9272137,101.316239 L87.2498803,101.316239 Z M82.2135726,100.578598 C80.1787009,100.578598 78.8560342,99.2813675 78.8560342,97.5517265 C78.8560342,95.7966496 80.1787009,94.4994188 82.2135726,94.4994188 C83.6888547,94.4994188 85.0623932,95.0844444 85.9272137,96.2036239 L85.9272137,98.8998291 C85.0623932,100.019009 83.6888547,100.578598 82.2135726,100.578598 L82.2135726,100.578598 Z M92.6931624,101.316239 L92.6931624,92.3628034 C93.2527521,91.2944957 94.9315214,90.1753162 96.1778803,90.1753162 C96.4322393,90.1753162 96.6102906,90.1753162 96.8392137,90.226188 L96.8392137,88.7763419 C95.1350085,88.7763419 93.7360342,89.7683419 92.6931624,91.1418803 L92.6931624,89.0307009 L91.3704957,89.0307009 L91.3704957,101.316239 L92.6931624,101.316239 Z M102.104444,101.62147 C103.12188,101.62147 103.706906,101.316239 104.190188,100.858393 L103.68147,99.8409573 C103.401675,100.146188 102.892957,100.425983 102.307932,100.425983 C101.443111,100.425983 101.036137,99.7392137 101.036137,98.7472137 L101.036137,90.2007521 L103.528855,90.2007521 L103.528855,89.0307009 L101.036137,89.0307009 L101.036137,85.6731624 L99.6880342,85.6731624 L99.6880342,89.0307009 L97.6531624,89.0307009 L97.6531624,90.2007521 L99.6880342,90.2007521 L99.6880342,98.9507009 C99.6880342,100.62947 100.476547,101.62147 102.104444,101.62147 L102.104444,101.62147 Z M105.614598,106.123624 C105.945265,106.225368 106.504855,106.301675 106.911829,106.301675 C108.361675,106.301675 109.404547,105.564034 110.06588,104.012444 L116.424855,89.0307009 L114.924137,89.0307009 L110.498291,99.7646496 L106.021573,89.0307009 L104.546291,89.0307009 L109.735214,101.417983 L108.76865,103.60547 C108.285368,104.775521 107.725778,105.106188 106.911829,105.106188 C106.606598,105.106188 106.123316,105.02988 105.843521,104.902701 L105.614598,106.123624 Z" id="Party" fill="#2A2D48" sketch:type="MSShapeGroup" mask="url(#mask-2)"></path>
                <path d="M131.678632,101.316239 L131.678632,90.2007521 L134.17135,90.2007521 L134.17135,89.0307009 L131.678632,89.0307009 L131.678632,87.9115214 C131.678632,86.2073162 132.416274,85.2407521 133.815248,85.2407521 C134.476581,85.2407521 134.985299,85.4951111 135.392274,85.8766496 L136.028171,84.9609573 C135.239658,84.274188 134.552889,84.0961368 133.688068,84.0961368 C131.627761,84.0961368 130.355966,85.520547 130.355966,87.9115214 L130.355966,89.0307009 L128.321094,89.0307009 L128.321094,90.2007521 L130.355966,90.2007521 L130.355966,101.316239 L131.678632,101.316239 Z" id="f" fill="#2A2D48" sketch:type="MSShapeGroup" mask="url(#mask-2)"></path>
            </g>
        </g>
    </g>
</svg>