<?xml version="1.0" encoding="UTF-8" standalone="no"?>
<svg width="187px" height="187px" viewBox="0 0 187 187" version="1.1" xmlns="http://www.w3.org/2000/svg" xmlns:xlink="http://www.w3.org/1999/xlink" xmlns:sketch="http://www.bohemiancoding.com/sketch/ns">
    <!-- Generator: Sketch 3.2.2 (9983) - http://www.bohemiancoding.com/sketch -->
    <title>Timeline</title>
    <desc>Created with Sketch.</desc>
    <defs>
        <circle id="path-1" cx="93.5" cy="93.5" r="93.5"></circle>
    </defs>
    <g id="Website" stroke="none" stroke-width="1" fill="none" fill-rule="evenodd" sketch:type="MSPage">
        <g id="Artboard-1" sketch:type="MSArtboardGroup" transform="translate(-535.000000, -206.000000)">
            <g id="Timeline" sketch:type="MSLayerGroup" transform="translate(535.000000, 206.000000)">
                <mask id="mask-2" sketch:name="Oval 1" fill="white">
                    <use xlink:href="#path-1"></use>
                </mask>
                <use id="Oval-1" fill="#F2F2F2" sketch:type="MSShapeGroup" xlink:href="#path-1"></use>
                <g id="Group" mask="url(#mask-2)" sketch:type="MSShapeGroup">
                    <circle id="Oval-2" fill="#F3CE4E" cx="91.9017094" cy="29.5683761" r="15.982906"></circle>
                    <rect id="Rectangle-22" fill="#5C8ED4" x="55.1410256" y="7.99145299" width="2.3974359" height="179.008547"></rect>
                    <g id="Oval-4-+-Shape-+-11:00-AM" transform="translate(29.568376, 65.529915)">
                        <g>
                            <ellipse id="Oval-4" stroke="#5C8ED4" stroke-width="3.2" fill="#FFFFFF" cx="26.6855769" cy="4.59853006" rx="4.60096154" ry="4.59853006"></ellipse>
                            <ellipse id="Oval-4" stroke="#5C8ED4" stroke-width="3.2" fill="#FFFFFF" cx="26.6855769" cy="80.048869" rx="4.60096154" ry="4.59853006"></ellipse>
                            <path d="M26.6501728,5.9915537 C26.4693868,6.17797999 26.1761331,6.17797999 25.9953471,5.9915537 L24.9807818,4.94533514 C24.7999958,4.75890885 24.7999958,4.45650598 24.9807818,4.2700797 C25.1615678,4.08365341 25.4548215,4.08365341 25.6356075,4.2700797 L26.2400888,4.89333012 C26.2857215,4.94038657 26.3597984,4.94038657 26.4055184,4.89333012 L28.0422772,3.20550642 C28.2230631,3.01908014 28.5163168,3.01908014 28.6971028,3.20550642 C28.7839185,3.29503063 28.8326923,3.41649563 28.8326923,3.54308916 C28.8326923,3.66968268 28.7839185,3.79114769 28.6971028,3.88067189 L26.6501728,5.9915537 L26.6501728,5.9915537 Z" id="Shape" fill="#F4D03F"></path>
                            <path d="M26.6501728,81.4418926 C26.4693868,81.6283189 26.1761331,81.6283189 25.9953471,81.4418926 L24.9807818,80.3956741 C24.7999958,80.2092478 24.7999958,79.9068449 24.9807818,79.7204186 C25.1615678,79.5339923 25.4548215,79.5339923 25.6356075,79.7204186 L26.2400888,80.3436691 C26.2857215,80.3907255 26.3597984,80.3907255 26.4055184,80.3436691 L28.0422772,78.6558454 C28.2230631,78.4694191 28.5163168,78.4694191 28.6971028,78.6558454 C28.7839185,78.7453696 28.8326923,78.8668346 28.8326923,78.9934281 C28.8326923,79.1200216 28.7839185,79.2414866 28.6971028,79.3310108 L26.6501728,81.4418926 L26.6501728,81.4418926 Z" id="Shape" fill="#F4D03F"></path>
                            <rect id="Rectangle-9" fill="#2A2D48" x="57.0519231" y="8.7044835" width="22.6980769" height="5.2116674" rx="1.6"></rect>
                            <rect id="Rectangle-9" fill="#2A2D48" x="57.0519231" y="79.8284151" width="22.6980769" height="5.2116674" rx="2.4"></rect>
                            <rect id="Rectangle-9" fill="#2A2D48" x="115.330769" y="8.7044835" width="22.6980769" height="5.2116674" rx="1.6"></rect>
                            <rect id="Rectangle-9" fill="#2A2D48" x="115.330769" y="79.8284151" width="22.6980769" height="5.2116674" rx="1.6"></rect>
                            <rect id="Rectangle-9" fill="#5C8ED4" x="53.3711538" y="65.9122642" width="30.0596154" height="5.2116674" rx="1.6"></rect>
                            <rect id="Rectangle-9" fill="#5C8ED4" x="0" y="2.1459807" width="18.4038462" height="5.2116674" rx="1.6"></rect>
                            <rect id="Rectangle-9" fill="#5C8ED4" x="0" y="77.5963196" width="18.4038462" height="5.2116674" rx="1.6"></rect>
                            <rect id="Rectangle-9" fill="#5C8ED4" x="111.65" y="65.9122642" width="30.0596154" height="5.2116674" rx="1.6"></rect>
                            <g id="11:32-AM-+-Jerry-Smith-+-Rectangle-35" transform="translate(46.195299, 16.248140)" fill="#5C8ED4">
                                <rect id="Rectangle-35" x="0" y="0" width="45.5512821" height="45.5512821" rx="1.6"></rect>
                                <rect id="Rectangle-35" x="0" y="71.1239316" width="45.5512821" height="45.5512821" rx="1.6"></rect>
                                <rect id="Rectangle-35" x="58.2788462" y="0" width="45.5512821" height="45.5512821" rx="1.6"></rect>
                                <rect id="Rectangle-35" x="58.2788462" y="71.1239316" width="45.5512821" height="45.5512821" rx="1.6"></rect>
                            </g>
                        </g>
                    </g>
                    <path d="M92.063351,35.6087557 C94.86142,35.6087557 96.5554889,34.0669626 96.5554889,31.954135 C96.5554889,29.9174453 94.7852821,28.9276522 93.6241786,28.8324798 C94.823351,28.6231005 96.3651441,27.7094453 96.3651441,25.882135 C96.3651441,23.7312384 94.4997648,22.4939971 92.063351,22.4939971 C90.1027993,22.4939971 88.6371441,23.3505488 87.7234889,24.4545488 L88.5990752,25.4443419 C89.5317648,24.4355143 90.5596269,23.9025488 91.9491441,23.9025488 C93.4909372,23.9025488 94.7852821,24.6639281 94.7852821,26.0724798 C94.7852821,27.538135 93.4338338,28.1662729 91.8349372,28.1662729 C91.3210062,28.1662729 90.7309372,28.1662729 90.5215579,28.1472384 L90.5215579,29.5938591 C90.7119027,29.5748246 91.3019717,29.5748246 91.8349372,29.5748246 C93.7003165,29.5748246 94.9946614,30.2410315 94.9946614,31.8208936 C94.9946614,33.2865488 93.8716269,34.2002039 92.0252821,34.2002039 C90.5215579,34.2002039 89.2272131,33.5149626 88.4848683,32.5251695 L87.5521786,33.5149626 C88.3325924,34.6570315 89.9124545,35.6087557 92.063351,35.6087557 L92.063351,35.6087557 Z" id="3" fill="#FFFFFF"></path>
                </g>
            </g>
        </g>
    </g>
</svg>