<?xml version="1.0" encoding="UTF-8" standalone="no"?>
<svg width="119px" height="31px" viewBox="0 0 119 31" version="1.1" xmlns="http://www.w3.org/2000/svg" xmlns:xlink="http://www.w3.org/1999/xlink" xmlns:sketch="http://www.bohemiancoding.com/sketch/ns">
    <!-- Generator: Sketch 3.2.2 (9983) - http://www.bohemiancoding.com/sketch -->
    <title>Logo</title>
    <desc>Created with Sketch.</desc>
    <defs></defs>
    <g id="Page-1" stroke="none" stroke-width="1" fill="none" fill-rule="evenodd" sketch:type="MSPage">
        <g id="Desktop" sketch:type="MSArtboardGroup" transform="translate(-70.000000, -34.000000)" fill="#FFFFFF">
            <g id="Logo" sketch:type="MSLayerGroup" transform="translate(70.000000, 34.000000)">
                <path d="M44.1136386,24.7301501 C44.9222651,22.4732099 45.6859679,20.1937002 46.5844418,17.9818988 C47.1909117,16.4471794 47.9770763,15.0027376 48.7183173,13.5131571 C48.8306265,13.2648936 49.0327832,13.061769 49.2349398,12.836075 C50.1558755,11.7527437 51.3688153,11.7753131 52.2223655,12.8812138 C52.3122129,13.0166302 52.3122129,13.2648936 52.2897511,13.4228795 C51.8405141,15.7023891 51.3014298,17.9593294 50.9195784,20.2614084 C50.672498,21.7058502 50.672498,23.2180002 50.5601888,24.6850113 C50.6051125,24.6850113 50.6500362,24.7075807 50.6949599,24.7075807 C50.7848073,24.5270255 50.8746547,24.3690397 50.9420402,24.1884845 C51.6832812,22.3377935 52.4020603,20.4871025 53.188225,18.6589809 C53.6599238,17.5982189 54.1990081,16.5600264 54.7830161,15.5669727 C55.4119479,14.5062108 56.1981125,14.1676697 57.1190483,14.5964884 C57.6132089,14.8221824 57.9950603,15.2961399 58.3769117,15.6798197 C58.4667591,15.7700973 58.3993736,16.0409302 58.3544499,16.198916 C57.455976,18.9298137 56.8045824,21.7284196 56.5575021,24.6173031 C56.4901165,25.2492464 56.5799639,25.9263285 56.714735,26.5582718 C56.8495061,27.2804926 57.4110523,27.5738949 58.0624459,27.2353538 C58.5116828,27.0096598 58.8935342,26.6034106 59.2080001,26.2197307 C59.8369318,25.4749404 60.0840122,24.6398725 60.0166266,23.5791106 C59.8593937,20.8933517 60.2412451,18.275301 61.7686507,15.9732219 C62.4874298,14.8898906 63.3634419,13.9645451 64.7785383,13.8742675 C64.8908475,13.8742675 65.0256186,13.7839899 65.115466,13.6937123 C66.6428716,12.4523951 68.7767471,13.2197548 69.6527592,14.5287802 C70.3715383,15.6346809 70.5961568,16.8308592 70.6186186,18.1173152 L70.6186186,19.4489099 C71.5620162,19.1780771 72.2134098,18.5912726 72.7300323,17.823913 C72.7974179,17.7110659 72.774956,17.5079413 72.7075705,17.3725249 C72.033715,15.8378055 72.2134098,14.3707944 72.9546508,12.9263526 C73.4712733,11.9107295 74.2574379,11.5270496 75.2457592,11.7301743 C75.5602251,11.7978825 75.6725343,11.9558683 75.6949962,12.2492705 C75.7848436,13.3777406 75.9196147,14.4836414 75.9870002,15.6121115 C76.009462,15.9732219 76.1217713,16.1086384 76.4811608,16.086069 C77.8737954,16.0183607 79.2439681,15.9506525 80.5467553,15.4089869 C80.7489119,15.3187093 81.1981488,15.3864175 81.3104581,15.5444033 C81.467691,15.7475279 81.5350765,16.1537772 81.4901528,16.42461 C81.2430725,17.5305107 80.883683,18.5912726 80.6590645,19.6971734 C80.2547512,21.6607114 79.9402854,23.6468188 80.142442,25.6780651 C80.1649038,25.9940367 80.2772131,26.3100083 80.3670605,26.6034106 C80.6366026,27.3482008 81.1981488,27.6416031 81.8720043,27.190215 C82.9950966,26.4228553 83.826185,25.3620934 83.826185,23.9627905 C83.826185,21.8864054 83.9384942,19.8325898 84.5449641,17.823913 C85.1289721,15.9280831 86.0723697,14.2805167 87.8917794,13.287463 C88.7004059,12.8586444 89.5539561,12.6780892 90.4299682,12.836075 C91.8001409,13.0391996 92.7435385,14.1676697 92.8333858,15.6798197 C92.9456951,17.3950943 92.5638437,18.9975219 91.8675264,20.5548107 C90.9241288,22.6086263 89.5090324,24.3013315 87.801932,25.7457733 C87.4650043,26.0391755 87.3976187,26.2648695 87.5773135,26.6485494 C88.0714742,27.6416031 88.6105585,28.589518 89.868422,28.6346568 C90.3850445,28.6572262 91.0139762,28.5218098 91.4407513,28.2284076 C92.8558477,27.303062 93.5746268,25.8586203 94.1810967,24.3239009 C94.2260204,24.1884845 94.2260204,24.0304987 94.2260204,23.8725129 C94.136173,22.0443912 94.2934059,20.2162696 94.7426429,18.4558562 C95.2817272,16.311763 96.2251248,14.4385026 98.2466911,13.3100324 C99.0777795,12.836075 99.9762534,12.6780892 100.897189,12.8586444 C102.334747,13.1294772 103.255683,14.3707944 103.255683,15.9957913 C103.278145,18.9523831 102.110129,21.4350174 100.268257,23.6468188 C99.6393256,24.4141785 98.8980847,25.0912606 98.1793056,25.7683427 C97.8648397,26.0617449 97.819916,26.2874389 97.9996108,26.6485494 C98.4937714,27.6641725 99.0553176,28.5669486 100.335643,28.6797956 C101.413812,28.7700732 102.155053,28.1832687 102.806446,27.4610479 C103.502763,26.6711188 104.06431,25.8134815 104.131695,24.6850113 C104.199081,23.4662636 104.693241,22.3377935 105.367097,21.3221704 C105.861257,20.5773801 106.467727,19.9905756 107.433587,19.9228674 C107.860362,19.8777286 108.19729,20.013145 108.466832,20.351686 C109.163149,21.2318927 109.881928,22.08953 110.578245,22.9697367 C111.36441,21.5478644 112.307808,18.0270376 112.33027,16.4697488 C111.11733,16.5148876 109.881928,16.5825958 108.668988,16.5600264 C107.972671,16.537457 107.253892,16.3794712 106.580037,16.2214854 C105.973567,16.086069 105.456944,15.7475279 105.367097,15.0704458 C105.254788,14.2805167 105.591715,13.6260041 106.085876,13.0843384 C106.153261,13.0166302 106.400342,13.0391996 106.535113,13.0843384 C109.005916,13.8742675 111.544105,13.8968369 114.082294,13.6260041 C114.778611,13.5582959 115.070615,13.7614205 114.958306,14.4385026 C114.756149,15.6798197 114.576454,16.9211369 114.261988,18.1398846 C113.700442,20.1711308 112.846892,22.08953 111.791185,23.9176517 C111.589029,24.2561927 111.61149,24.4818867 111.881033,24.7527196 C112.375193,25.226677 112.82443,25.7909121 113.363514,26.2197307 C114.194603,26.8968128 115.093077,26.8291046 115.789394,25.9940367 C116.148784,25.565218 116.440788,25.0912606 116.687868,24.5721643 C116.934948,24.0756375 117.3168,24.0982069 117.721113,24.2110539 C118.147888,24.3239009 118.17035,24.6624419 118.035579,25.0235524 C117.451571,26.7162576 116.485711,28.0704217 114.845996,28.8603508 C113.655519,29.4245859 112.509964,29.3568777 111.476719,28.4992404 C110.892711,28.0027135 110.331165,27.4836173 109.792081,26.9870904 C109.252996,27.4610479 108.713912,27.9575747 108.152366,28.4089628 C107.905286,28.6120874 107.59082,28.815212 107.276354,28.928059 C105.591715,29.5374329 104.985245,29.2214613 104.244004,27.9124359 C100.78488,31.726665 96.4048196,30.5079172 94.8100284,26.6936882 C94.4731007,27.0999374 94.1810967,27.5061867 93.844169,27.8672971 C92.9456951,28.9054896 91.8675264,29.7631269 90.5198156,30.0790986 C88.4308637,30.553056 86.6788396,29.9436821 85.3311288,28.250977 C84.9717392,27.7995889 84.702197,27.2804926 84.3877312,26.7613964 C84.1406509,27.0547986 83.9609561,27.3933397 83.6689521,27.5964643 C83.0400203,28.0929911 82.4335504,28.6572262 81.7147713,28.9506284 C79.9852091,29.6728493 78.4578034,28.928059 77.783948,27.1676456 C77.1550163,25.5426486 77.042707,23.827374 77.1774781,22.1120994 C77.2673255,21.0287681 77.4020966,19.9454368 77.5144058,18.8395361 L76.2790042,18.8395361 C76.0543857,18.8846749 75.9420765,19.2006465 75.9420765,19.4263405 C75.8522291,22.3152241 73.9878958,26.4905636 73.0894219,28.3863934 C72.9995745,28.589518 72.8872652,28.7926426 72.7524942,28.9506284 C72.482952,29.2891695 72.1011006,29.3343083 71.741711,29.1086143 C71.4047833,28.9054896 71.3149359,28.6120874 71.4721688,28.2058381 C72.2583335,26.2874389 73.8980484,21.2544621 74.0552813,19.1780771 C74.0777432,18.9749525 74.0552813,18.7718279 74.0552813,18.5687032 C73.9878958,18.500995 73.8980484,18.4332868 73.8306628,18.3655786 C73.7857391,18.500995 73.7632773,18.6589809 73.6958918,18.7718279 C72.9546508,19.787451 72.033715,20.5999495 70.7983134,21.0061987 C70.4838476,21.1190457 70.3715383,21.299601 70.3266146,21.5930032 C69.8998395,23.714527 69.1136749,25.6780651 67.6311929,27.2579232 C67.0921086,27.8447277 66.440715,28.3412546 65.7443977,28.7475038 C64.3068395,29.5825717 62.4874298,29.1988919 61.431723,27.9350053 C61.139719,27.5964643 60.9151005,27.2127844 60.6230965,26.851674 C60.3310925,27.190215 60.0615503,27.5513255 59.7246226,27.8672971 C58.9159961,28.6572262 57.9501366,29.1763225 56.7821206,29.1988919 C56.0633414,29.1988919 55.4793334,28.928059 55.0076346,28.3863934 C54.1540844,27.3933397 53.8396185,26.1971613 53.7497711,24.9558442 C53.6599238,23.6242494 53.7273093,22.2926547 53.7273093,20.9836293 C53.6599238,21.1190457 53.5700764,21.2770316 53.5026908,21.4575868 C52.5368314,23.714527 51.5485101,25.9714673 50.6500362,28.250977 C50.4029559,28.8829202 49.9986426,29.0634754 49.4370964,29.0634754 C48.8306265,29.0860448 48.2241567,28.9506284 47.9770763,28.3412546 C47.729996,27.7093113 47.5053775,27.0096598 47.4604538,26.3551471 C47.3256828,23.6242494 47.8423052,20.9384905 48.2690804,18.2301622 C48.314004,17.9593294 48.3589277,17.6884965 48.3589277,17.3725249 C48.2690804,17.5530801 48.179233,17.7336353 48.1118474,17.93676 C46.8764458,21.3673092 45.663506,24.7978584 44.4505663,28.2284076 C44.3157952,28.6120874 44.1361004,28.8377814 43.754249,28.9054896 C43.305012,28.9731978 42.8782369,29.1086143 42.429,29.1537531 C41.687759,29.2440307 41.2385221,28.9054896 41.0139036,28.1832687 C40.9689799,28.0704217 40.9465181,27.9350053 40.9015944,27.7995889 C37.2627751,31.9072202 32.8153293,30.3950702 31.3103855,26.62598 C31.0183815,26.9870904 30.7488393,27.3482008 30.4568353,27.6641725 C29.3786666,28.8829202 28.0534176,29.4697247 26.3912409,29.1086143 C25.6724617,28.9506284 25.0884537,28.589518 24.6392168,27.9801441 C23.7856665,26.8065352 23.5161244,25.4749404 23.3813533,24.0756375 C23.134273,21.3221704 23.4487388,18.5912726 23.7856665,15.8603749 C23.9204376,14.7544742 24.1001324,13.6260041 24.2124417,12.4975339 C24.1225943,12.6780892 24.0327469,12.836075 23.9428995,13.0391996 C21.9662569,17.9818988 19.9896143,22.9245979 18.0354336,27.8898665 C17.8782006,28.2961158 17.6535822,28.5669486 17.2492689,28.6572262 C16.7775701,28.7700732 16.3058713,28.928059 15.8341725,28.9731978 C15.025546,29.040906 14.5987709,28.589518 14.6886183,27.7770195 C14.9806223,25.2943852 15.31755,22.8117509 15.5870922,20.3291166 C15.9689436,16.8985674 16.3058713,13.4454489 16.6652609,10.0148997 C16.800032,8.77358252 16.8898794,7.50969597 16.9123412,6.22324002 C16.8224938,6.42636465 16.7326464,6.62948927 16.6652609,6.8551833 C14.0596866,13.6485735 11.7236544,20.5096719 9.70208815,27.4836173 C9.45500782,28.3412546 7.8377548,29.2666001 6.9842046,29.040906 C6.5125058,28.928059 6.28788732,28.589518 6.35527287,27.9350053 C6.5125058,26.3551471 6.66973873,24.7978584 6.84943351,23.2180002 C7.20882307,19.7423122 7.56821263,16.2666242 7.92760219,12.7909362 C8.17468252,10.3760101 8.39930099,7.96108402 8.69130501,5.54615795 C8.87099979,3.89859156 8.55653392,3.58261992 6.9392809,3.76317514 C5.00756201,4.01143857 3.07584313,4.21456319 1.14412424,4.44025722 C0.313035881,4.53053483 -0.0238918318,4.16942439 0.155802948,3.35692589 C0.335497729,2.45414979 0.807196527,2.04790054 1.70567043,2.02533114 C4.53586322,1.95762293 7.366056,1.88991473 10.1737869,1.84477592 C11.1171845,1.82220652 11.9707347,2.02533114 12.3525862,2.99581545 C12.5098191,3.4020647 12.5547428,3.92116096 12.4873572,4.34997961 C11.7685781,9.69892802 11.0273372,15.025307 10.308558,20.3742554 C10.308558,20.4193943 10.308558,20.4871025 10.3310199,20.6902271 C10.8701042,18.9298137 11.3642649,17.3048167 11.8584255,15.6798197 C13.3633693,10.8273982 14.8233894,5.95240719 16.7775701,1.25797145 C17.1594215,0.332625947 17.5861966,0.039223713 18.5071324,0.400334155 C19.3606826,0.738875193 20.1468472,1.34824906 20.9330119,1.86734532 C21.0453211,1.93505353 21.0902448,2.22845576 21.067783,2.40901099 C20.6410079,5.88469898 20.1917709,9.33781758 19.7649958,12.8135056 C19.4056063,15.5444033 19.0686786,18.2978704 18.709289,21.0287681 C18.6868272,21.1867539 18.6868272,21.3221704 18.7766745,21.5027256 C18.8215982,21.3447398 18.8665219,21.1867539 18.9339075,21.0287681 C20.3714657,16.6277346 21.8539477,12.2718399 23.9204376,8.11906984 C23.9878232,7.96108402 24.0776706,7.82566761 24.1450561,7.66768179 C24.5044457,6.99059971 24.9761445,6.83261389 25.627538,7.23886314 C26.7955541,7.96108402 27.5143332,9.11212356 28.0758794,10.3083019 C28.1208031,10.4211489 28.0758794,10.6017041 28.0534176,10.7371205 C27.1774055,14.348225 26.6158593,18.0044682 26.4810883,21.7058502 C26.4361646,23.037445 26.660783,24.3916091 26.7730923,25.7457733 C26.7955541,25.9714673 26.8854015,26.1745919 26.9752489,26.3777165 C27.4694095,27.5061867 28.5475782,27.7093113 29.311281,26.7839658 C29.8728272,26.1068837 30.2546786,25.3169546 30.7039156,24.5495949 C30.793763,24.3690397 30.793763,24.1207763 30.7713011,23.8950823 C30.6589919,21.8864054 30.8386867,19.900298 31.4002329,17.9818988 C31.961779,16.0183607 32.9276385,14.3030862 34.7919718,13.2648936 C35.6230602,12.8135056 36.5215341,12.6329504 37.4424698,12.8135056 C38.8575662,13.0843384 39.7560401,14.3030862 39.778502,15.9055137 C39.8234257,18.8169667 38.7003333,21.2770316 36.9033855,23.4662636 C36.2295301,24.2787621 35.4209036,25.000983 34.6572008,25.7457733 C34.4101204,25.9714673 34.3427349,26.1520225 34.477506,26.4679941 C34.9492048,27.5287561 35.5332128,28.476671 36.8584618,28.589518 C37.4649317,28.6572262 38.0264779,28.4992404 38.4757148,28.1155605 C40.0031205,26.8065352 41.0363654,25.226677 41.2385221,23.150292 C41.5305261,20.2162696 41.9123775,17.2822473 42.2268434,14.348225 C42.2717671,13.9871145 42.4065381,13.7839899 42.721004,13.6937123 C43.3274739,13.5131571 43.9339438,13.2648936 44.5404137,13.1971854 C45.3041165,13.1069078 45.6410442,13.5582959 45.5062731,14.3256556 C45.0345743,17.4853719 44.5628755,20.6450883 44.0911767,23.8048046 C44.046253,24.0982069 44.0237912,24.3916091 44.0013293,24.6850113 C44.0687149,24.7301501 44.0911767,24.7301501 44.1136386,24.7301501 L44.1136386,24.7301501 Z M67.8108877,21.299601 C65.856707,20.8482129 64.3068395,19.9905756 63.6554459,17.8690518 C62.9815905,20.5096719 62.8692812,23.0600144 63.6329841,25.5877874 C63.790217,26.1068837 64.0597592,26.62598 64.3966869,27.077368 C64.8010001,27.6641725 65.4299319,27.7093113 65.9465544,27.190215 C66.2610202,26.8742434 66.5530242,26.4679941 66.732719,26.0391755 C67.3391889,24.5495949 67.6311929,22.9697367 67.8108877,21.299601 L67.8108877,21.299601 Z M87.1280766,24.3464703 C88.835177,22.2700853 89.7336509,20.0357144 90.0031931,17.5305107 C90.0930404,16.7405816 90.0705786,15.9280831 90.0031931,15.1155846 C89.9582694,14.6641966 89.5988798,14.5513496 89.2170284,14.799613 C89.0597955,14.91246 88.8801007,15.0478764 88.7902533,15.2284317 C88.4084019,16.086069 87.9816268,16.9211369 87.7345465,17.8013436 C87.1280766,19.900298 86.9933055,22.0443912 87.1280766,24.3464703 L87.1280766,24.3464703 Z M97.527912,24.3464703 C98.6285425,22.9697367 99.3922453,21.6155726 99.8639441,20.1034226 C100.335643,18.5687032 100.627647,17.0114145 100.470414,15.3864175 C100.447952,15.1607234 100.245796,14.7770436 100.088563,14.7544742 C99.8639441,14.7093354 99.5719401,14.9350294 99.3248598,15.0704458 C99.2350124,15.1155846 99.1900887,15.2510011 99.145165,15.3412787 C98.3140766,16.6051652 98.0669963,18.049607 97.7974542,19.4940487 C97.4829883,21.0287681 97.3931409,22.5860569 97.527912,24.3464703 L97.527912,24.3464703 Z M34.0956546,24.3464703 C35.8476787,22.2023771 36.7461526,19.8777286 36.9932329,17.3048167 C37.0606184,16.6051652 37.0606184,15.8829443 36.9932329,15.1832929 C36.9483092,14.6641966 36.5664578,14.5513496 36.1396827,14.8447518 C35.9824498,14.9350294 35.8701405,15.0930152 35.7578313,15.2510011 C35.0165903,16.2666242 34.76951,17.4628025 34.4999678,18.6364114 C34.0731927,20.4645331 33.9833453,22.3152241 34.0956546,24.3464703 L34.0956546,24.3464703 Z M106.647422,22.9923061 C106.580037,23.0148756 106.490189,23.037445 106.422804,23.0600144 C106.355418,23.2857084 106.288033,23.5114024 106.243109,23.7370964 C106.220647,23.9176517 106.198185,24.0982069 106.220647,24.2787621 C106.288033,25.1815382 106.310494,26.1068837 106.490189,26.9870904 C106.62496,27.6867419 107.096659,27.7995889 107.635743,27.303062 C108.107442,26.8742434 108.511755,26.3551471 108.983454,25.8360509 C108.152366,24.8655666 107.388663,23.9402211 106.647422,22.9923061 L106.647422,22.9923061 Z M67.9681206,19.2457853 C67.9681206,18.7943973 67.9905825,18.4558562 67.9681206,18.1173152 C67.9007351,17.0565533 67.765964,16.0183607 67.0696467,15.1607234 C66.9124138,14.9801682 66.5754861,14.799613 66.3733295,14.8447518 C66.1936347,14.8898906 66.0139399,15.2510011 65.9914781,15.4992645 C65.856707,17.0791227 66.5754861,18.2527316 67.9681206,19.2457853 L67.9681206,19.2457853 Z" id="Shape" sketch:type="MSShapeGroup"></path>
            </g>
        </g>
    </g>
</svg>